<svg xmlns="http://www.w3.org/2000/svg" width="221" height="221" fill="none" viewBox="0 0 221 221"><path fill="#080707" d="M12.9834 79.6255C-25.3184 35.3068 35.3068 -25.3184 79.6255 12.9834V12.9834C97.3678 28.317 123.672 28.317 141.414 12.9834V12.9834C185.733 -25.3184 246.358 35.3068 208.056 79.6255V79.6255C192.723 97.3678 192.723 123.672 208.056 141.414V141.414C246.358 185.733 185.733 246.358 141.414 208.056V208.056C123.672 192.723 97.3679 192.723 79.6255 208.056V208.056C35.3068 246.358 -25.3184 185.733 12.9834 141.414V141.414C28.317 123.672 28.317 97.3679 12.9834 79.6255V79.6255Z"/></svg>