<svg xmlns="http://www.w3.org/2000/svg" width="221" height="220" fill="none" viewBox="0 0 221 220"><path fill="#FCFDFD" d="M12.9834 79.1056C-25.3184 34.7869 35.3068 -25.8383 79.6255 12.4635V12.4635C97.3678 27.7971 123.672 27.7971 141.414 12.4635V12.4635C185.733 -25.8383 246.358 34.7869 208.056 79.1056V79.1056C192.723 96.8479 192.723 123.152 208.056 140.894V140.894C246.358 185.213 185.733 245.838 141.414 207.537V207.537C123.672 192.203 97.3679 192.203 79.6255 207.536V207.536C35.3068 245.838 -25.3184 185.213 12.9834 140.894V140.894C28.317 123.152 28.317 96.848 12.9834 79.1056V79.1056Z"/></svg>